<svg id="圖層_1" data-name="圖層 1" xmlns="http://www.w3.org/2000/svg" width="123.47mm" height="35.28mm" viewBox="0 0 350 100">
  <defs>
    <style>
      .cls-1 {
        fill: #231815;
      }

      .cls-2 {
        fill: #e50012;
      }
    </style>
  </defs>
  <title>header-logo</title>
  <g>
    <g>
      <path class="cls-1" d="M327.9,33.31l-.75.59-5.16.54-.67-.59c.07-.32.07-.46.14-.55,1-1.27,2.56-1.37,3.89-2,.54-.25,1.26-.16,1.77-.45a7,7,0,0,1,4-.69c2.25,1.06,2.26.83,2.93,2.37-.09,1.46-.23,2.63-.22,3.8a8.86,8.86,0,0,1-.41,2.94,11.33,11.33,0,0,0-.14,2.31c.1,1.12.15,2.24.23,3.51l.56,1.09.37,2.66c.11.62-.67,1.22.05,1.88l-.91,1.86-1.41.7a4,4,0,0,1-2.16-1.5,4.38,4.38,0,0,0-1.63-1.43,3.74,3.74,0,0,1-1.75-2l.56-1.11h3.12c.16-.39.34-.76.48-1.14s.18-.7.29-1.17a16.06,16.06,0,0,1-.34-7.93,4.82,4.82,0,0,0-.71-3.71Z"/>
      <path class="cls-1" d="M108,41.7a13.69,13.69,0,0,1-2.1.07,2.68,2.68,0,0,1-1.21-2.62c.53-.78.87-1.35,1.84-1.54.71-.14,1.6-.61,2.31-.74a43.44,43.44,0,0,1,6-.81c.46-.23,1-.77,1.75-1.15h2.07a3.61,3.61,0,0,1,.8,1.37c-.45,2.48-2.73,3.65-4.24,5.54.36.59.8.94,1.18,1.55a3.54,3.54,0,0,1-.46,1.76c.46,1.4,2.3,1,3,2.39a7.35,7.35,0,0,1,0,2.11c-.51,1.91-1.72,2.06-3,3.45-2.26.19-3.72-1-4.84-2.62.17-.31.29-.85.44-1.12.87-.44,2.71.35,2.83-.38s-.91-1.31-1.41-2a9.29,9.29,0,0,0,0-2.41c-.12-.45-.75-.43-1.1-.94,0-.45,0-1.34,0-1.79,1.12-1.31,2.19-2.18,3.35-3.53-.19-.18-.32-.48-.52-.47-1.12,0-3.38,1.26-5,1.94a2.89,2.89,0,0,0-.91.93C108.53,41,108.49,41.61,108,41.7Z"/>
      <path class="cls-1" d="M82.94,29.41c1.28-.73,3.33,1.35,2.14,3.67-.47.93-1.61,1.24-2.65,2-.35.64-.75,1.65-1.2,2.48,1.44.27,3-.4,4.45-1a5.3,5.3,0,0,0,2.08-2,4.71,4.71,0,0,1,3.18.42,4,4,0,0,1,1.74,2.63,1.87,1.87,0,0,1-.38,1.71c-.28.25-1,.18-1.6.09a15.27,15.27,0,0,0-3.93-.36,21.66,21.66,0,0,0-4.85,1c-2,.62-4,1.19-6,1.82-1.22.4-1.41.33-2.76-.29-.28-2,1.12-3,2.32-4.16,1.49-1.4,2.75-2.88,4.34-4.32C81.8,31.47,82.15,29.86,82.94,29.41Z"/>
      <path class="cls-1" d="M161.35,29.32l.79-.7,1.87.94,1.89,5.22L167,34l.8.75v2.83a3.81,3.81,0,0,0-2.62,1.19,6.57,6.57,0,0,1,.35,1.11c.05.31-.11.66-.06,1a9.09,9.09,0,0,1-.11,2.75,24.11,24.11,0,0,0-.08,4.5,13.84,13.84,0,0,0,.42,2.13l-1,1.13-1.47-.13c-.12-.56-.23-1-.38-1.72l-1.14-.77a2.69,2.69,0,0,1-2.19-1.12l2.38-4a1.55,1.55,0,0,0-1.77.12,8.94,8.94,0,0,1-2.14,1c-1,.34-1.27.24-2.55-.52-.18-.78.4-1.19.91-1.49A24.09,24.09,0,0,1,159,41.54c1-.42,2.05-.8,3-1.16,1-2.23.54-4.46.45-6.62,0-.69-.62-1.43-.7-2.26A19.43,19.43,0,0,0,161.35,29.32Z"/>
      <path class="cls-1" d="M134.58,48.45c0,.44-.49.8-.92,1s-1.25,0-1.92,0c-.89-.63-.66-1.44-.34-2.31a6.17,6.17,0,0,0,.44-2.07,1.39,1.39,0,0,0-1.45-1.33,3.07,3.07,0,0,0-2,1.43,6.4,6.4,0,0,0-.73,2.29,1.24,1.24,0,0,1-.75.24c-.5,0-1.45-.51-1.33-1,.45-1.92,2.2-3.15,2-6-.07-.89-1.75-1.15-1.92-2a3.32,3.32,0,0,1,.19-2.42c2-.54,3.27.65,5.07.74.61,0,1.36,1.24,1,1.73s-1.57.48-1.87,1.47a1.24,1.24,0,0,0,.25,1,.91.91,0,0,0,.72.32,1.71,1.71,0,0,0,1.39-.73c.76-.82,0-3.28.44-3.47.06,0,.4,0,.33-.77,0-.37-.54,0-.46-1.11-.41-.24-1-.42-1.5-.71-.81,0-1.67-.09-2.48-.09a.93.93,0,0,1,.49-1.44,6,6,0,0,1,3.87-.76,12.78,12.78,0,0,1,1.66,1.26,2.62,2.62,0,0,1,.79,1.52c0,2.89.54,4.62-.22,7.4A25.86,25.86,0,0,0,134.58,48.45Z"/>
      <path class="cls-1" d="M148.11,36a5.6,5.6,0,0,1-1.67,2.46c-1.24,1-2.81.7-3.77,1.6a2.3,2.3,0,0,0-.83,2c0,.85.95,1,1.43,1.55.82.21,1.43.46,2.14.62,1.49.33,2.64,0,4.15-1.38,1.38,0,1.54.06,2.06.86.11.52.09,1.17.23,1.81-.14.39-.31.9-.5,1.45l-2.27.42c-2.17-.52-4.31-.09-6.65-.31-.46-.22-1-.56-1.61-.86-.46-.63-1-1.22-1.59-2a14,14,0,0,1-.44-5.56,3.53,3.53,0,0,1,.43-1.54,1.59,1.59,0,0,1,1-.42c1,0,.72,1,1.31,1.12.88.11.25-1.45.82-2a1.82,1.82,0,0,1,1.54-.24c.38.14.12.4.38.75.56,0,1.07.14,1.41-.29a1.24,1.24,0,0,0,.21-1.45,2.82,2.82,0,0,0-.69-.87,6.75,6.75,0,0,0-2.85.32,2.39,2.39,0,0,1-2.44-1.13c-.11-.36.27-.52.46-.78H147a4.34,4.34,0,0,1,1.11,1.31A3.54,3.54,0,0,1,148.11,36Z"/>
      <path class="cls-1" d="M176.76,45.17c.24.39.82,5.45-.27,6.91-.29.39-1.4.13-2.17-.66.08-.69.28-1.78.43-3.06-.32-.16-.79-1.35,0-1.33-.32-.56-.51-1.36-.76-1.8-1.64-.11-2.32.34-3.56,1.48-1.65.08-1.65.08-1.74-1.64.21-.51,1.63-1.44,2.29-2-.35-.44-.8-.54-1.06-.88-.33-.71,1.21-1.77,3.62-1.58.27.47.34,1.51.76,1.52.63,0,.62-.54.9-.75.44-.11.27-.29.28-.41.17-1.66-.12-3.52,0-5.09,0-.72,0-1.94,0-2.8-.52-.76-.92-.78-1.5-1.64-.2-.41-.07-.87.53-.77s1.49-.12,2.13.23a3.22,3.22,0,0,1,1,1.25,6.72,6.72,0,0,1,.33,2c-.24,2.22-.32,4.29-.56,6.5,1,.5,3-.06,2.84.78-.08.51-.07,1.65-.3,1.77C178.8,43.85,177.39,44.05,176.76,45.17Z"/>
      <path class="cls-1" d="M225.83,31.38l1.53,1.94v2.23c-.73,1.4-1.91,2.77-.38,4.28,0,1.73.18,3.36-.69,4.61l1.83,2.18v2.61l-1.24,1.32c-1.21.18-2.26.11-2.8-1.25l1-2.07-2-1.18-.51-.9c.25-.49.5-1,.75-1.47l1.41-1.12V41.24l-.92-.59.13-.21-1.77-.1c0-.41,0-.77,0-.87,1-1.88,1.91-3.55,2.8-5.22l-.27-.08c-.11-.89-.22-1.79-.34-2.79Z"/>
      <path class="cls-1" d="M216.75,40.23c1,1.4,1.67,2.42,2.28,3.29v2.29c-.36.52-.81,1.17-1.33,1.94l-2-.85V44.72c-.38-.75-.69-1.35-1-2-1-.2-2.27,1.12-3.23-.3,0-1.18.84-1.85,1.54-2.63a15.19,15.19,0,0,0,3.1-5,14.15,14.15,0,0,0,.42-2.26l.88-.93,1.53.82v2.79l-1.78,3C217.07,38.73,216.88,39.62,216.75,40.23Z"/>
      <path class="cls-1" d="M289.88,44.54h-1.64c-.15-.27-.31-.53-.51-.89a5.73,5.73,0,0,1,2.38-3.41,5.64,5.64,0,0,0,1.65-2.1c.54-.89.95-1.87,1.4-2.77l1-.54A2.51,2.51,0,0,1,296.62,37a13.29,13.29,0,0,1-.33,3.22A17.94,17.94,0,0,1,289.88,44.54Z"/>
      <path class="cls-1" d="M112,31.57c1.63-.38,3-1.36,4.23-1a1.34,1.34,0,0,1,.92,1c.07.44-.56.76-.93,1.14-1.15,1.17-2.68,1.6-4.29,2.35a3.33,3.33,0,0,1-4.26-1.47c-.24-.43-.44-.88-.8-1.61l.51-3.63c.22-.22.57-.66.79-.87a2.11,2.11,0,0,1,2.43.84C111.28,29.09,109.84,31.08,112,31.57Z"/>
      <path class="cls-1" d="M300.2,36.22l1.08-1.37,2.46-.42a31.44,31.44,0,0,1,4.06,1.12,12.59,12.59,0,0,1,2.49,1.79v1.3c-1.07,1.35-2.25,2.54-4.32,2a12.54,12.54,0,0,0-1.52-1.7c-.52-.42-1.25-.55-1.82-.92C301.86,37.56,301.16,37,300.2,36.22Z"/>
      <path class="cls-1" d="M267.1,43.77l-1,3.3-1.82.18c-.33-.8-.65-1.57-1-2.42l.41-1.16h-.19V40.86c-.07-1.1-.16-2.38-.25-3.73l1.13-.59a2.37,2.37,0,0,1,1.25,1.65c.27,1.56.7,3.08,1.08,4.62C266.85,43.11,267,43.39,267.1,43.77Z"/>
      <path class="cls-1" d="M316.28,39.07l.58-1.58,5.86-2.39h1.78l.94.89v1.53a3.34,3.34,0,0,1-2.1,1.36c-1.36.31-2.71.69-4.27,1.1Z"/>
      <path class="cls-1" d="M98,42.62c.11-.09.3-.66.65-.59,1.17.21,3.41,1.06,4.06,2.7a3.84,3.84,0,0,1,0,1.75,14.65,14.65,0,0,1-.58,2l-.64.6H99.93a2.09,2.09,0,0,1-.43-.4,10.31,10.31,0,0,1-.92-3.17C98.41,44.6,98.23,43.7,98,42.62Z"/>
      <path class="cls-1" d="M266.41,31.75l2.35,1.67c.39,1,.67,1.64,1,2.46l-.58,1.21-1.43.69a2.31,2.31,0,0,1-.56-.23c-.53-.44-.55-.93,0-1.58l-3.05-2.62a9.61,9.61,0,0,1,.12-1.12c0-.16.22-.29.39-.48Z"/>
      <path class="cls-1" d="M101.15,32.09a2.45,2.45,0,0,1,1.23,1.74c.11.85-.58,1.54-.88,2.32H98.76l-.89-.84v-2.4l.87-.82C99.47,32.09,100.27,31.64,101.15,32.09Z"/>
      <path class="cls-1" d="M230.94,40.22l1.33-.23,1.84,1.22v3.55c-.48.83-1.27.51-2.06.5A6,6,0,0,1,230.94,40.22Z"/>
      <path class="cls-1" d="M159.45,37.44c.34,1-.35,1.31-.77,1.68-1.12.55-1.61-.5-2.41-.78a1.29,1.29,0,0,1,.5-1.68A2.78,2.78,0,0,1,159.45,37.44Z"/>
      <path class="cls-1" d="M172.83,37.6c.29.32-.1.89-.16,1.42l-2,.46c-.5-.3-1.46-.38-1.19-1.52C170.45,36.83,171.58,36.19,172.83,37.6Z"/>
      <path class="cls-1" d="M255.71,44a1.39,1.39,0,0,1,0-.64,4.94,4.94,0,0,0-1.58-4.47c-1.71.13-3.35-.23-4.92.33l-.95-.57a2.66,2.66,0,0,1,1.22-2.26c1.52-.16,2.84-.62,3.95-.33,1.64.44,2.87-.18,4.31-.73,0-.65-.09-1.24-.13-1.84l-1.66-.52a11,11,0,0,1-6.73-.49c-.87-2.68-.87-2.68-2.82-3.27-1,1.08,0,1.93.29,2.77-.17.68-.31,1.27-.48,2l-.87.81h-1.67c-1.62,1-3.8,1-4.55,3.28,1.57,1.06,3.39.06,5.11.73a4.64,4.64,0,0,1-.61,1.16A5,5,0,0,1,241,41.16c-.59.11-1.17.28-1.75.42v1.71a2.44,2.44,0,0,0,3.27.38c1-.6,2.07-1,3.11-1.54l.67,1.11a10.52,10.52,0,0,0,.3,6.19h1.79c1-1,.44-2.2.7-3.26a2.68,2.68,0,0,1,3.58-.35c.44.83,1,1.67,0,2.42-.9.36-2.06-.4-2.59.95l3.11,3.74,1.27.41,1.7-2.25C256.11,48.68,256.4,46.29,255.71,44Zm-4.49-3.13c-.5.64-1.14.1-1.72.24C250.39,40.28,250.39,40.28,251.22,40.84Zm-1.75,2.49c.92-1,1.25-.94,2.2.24C250.77,44.1,250.15,43.6,249.47,43.33Z"/>
      <path class="cls-1" d="M207.56,48.43l-4.76-2.12V45L205,43.1V40.87c-1.13-.81-2.26-1.63-3.46-2.48,3.76-2.66,3.7-3.8,2.16-7-1.86-.13-3.72-.19-5.33,1-1.32,1.22-2.53,2.62-4.47,3.3l-1.39-2.33-4.18-.74-1.53,1.56,2.57,1,1.93,1.76c-.21.35-.42.73-.65,1.12l-2.33.58a3.44,3.44,0,0,0-3.65-1.11l-.51.61,2.72,3.34a18.92,18.92,0,0,1,.35,2.36c0,.84-.68,1.63-.2,2.62l.87.81H190l2,1.54,2-.84a34.8,34.8,0,0,0,0-3.7c-.13-1.22.21-2.41,0-3.57a34.56,34.56,0,0,1,2.46-4,9.49,9.49,0,0,1,3.18-2.89c.84-.39,1-.33,1.83.44L199.82,36a12.62,12.62,0,0,1-.26,2.42,4.35,4.35,0,0,0-.09,2.34L202,41.9c.19,1.6-.36,2.53-1.57,2.88l-2.6-.58L197.29,46l-2,1.06v1.41l5.06-.46c2.33,1,4.26,2.63,6.76,2.21C207.85,49.67,207.72,49.07,207.56,48.43ZM190.25,45.7c.1-1-.37-1.88.57-2.61.93.7.45,1.58.59,2.46Zm-.12-4.14c-.11-.19-.24-.34-.21-.39.53-.82.53-.82,1.72-.32Z"/>
      <path class="cls-1" d="M283.06,42.82l-.23.17c-.37-.52-.73-1-1.09-1.57a5.74,5.74,0,0,0-3.2,2.32c-.43.59-.94,1.12-1.47,1.74l-1.22-.67c.17-1.31.33-2.53.53-4,1-1.11,3-1.4,3.55-3.69.35-1.23.8-2.81,1.25-4.36-1.62-2.48-4.05-1.81-6.54-1.58-.74.58-2.07.64-3.24,1.79a17.87,17.87,0,0,1,6,3.38c-.28.46-.52.88-.78,1.32-.94-.39-1.79-1-3-.51a8,8,0,0,0-.36,1.69c0,1.94-.38,3.9.33,5.8a2,2,0,0,1-.09.92c-.11.66-.24,1.32-.3,1.68a3,3,0,0,0,3.37,2.5,15.7,15.7,0,0,1,3.93-3.71c.57.39,1.14,1.14,2.16.62l.91-1C283.39,44.77,283.22,43.8,283.06,42.82Zm-6.84-9.37c1.2-.89,1.3-.88,2.4.2l-.8.76Z"/>
      <path class="cls-1" d="M88.72,42.61a7.29,7.29,0,0,0-4.38.4,7.27,7.27,0,0,1-3.3.72,6.62,6.62,0,0,0-3.68,1.44c.21.62.2,1.26.4,1.86l1.9,1c.44.68.88,1.46,1.36,2.19a30,30,0,0,0,7.2.3c.67-1.91,1.34-3.36,2-5.41A2.49,2.49,0,0,0,88.72,42.61ZM85.94,47c-.18.49-.79.41-1.17.63-.38-.16-1.13-.32-1.68-.6v-.8a3.09,3.09,0,0,1,2-1C86.22,45.18,86.2,46.29,85.94,47Z"/>
      <path class="cls-1" d="M306.25,45.43l-3.12-.67a6.37,6.37,0,0,0-4.22-2.48,20.94,20.94,0,0,0-4,3.58,3.07,3.07,0,0,0,1.33,3.22h1.51l4.17-1.66c.56,1.22,1.22,2.19,2.43,2.39l1.52-.55,1.22-1.88Zm-7.2,1c-.17.15-.74-.15-1.43-.33l1.26-1.16,1.95.1C300.82,46.37,299.61,45.92,299.05,46.4Z"/>
      <path class="cls-1" d="M326.7,43.62c.75-1.43-.05-2.34-1.08-3.23A28.64,28.64,0,0,0,317,42.61c-.18.39-.42.88-.67,1.38l.31.68,2.83,3c1.19.76,2.94.07,4.57.33l2.6-1.67C326.41,45.4,327.18,44.55,326.7,43.62ZM322,46.09c-.46-.42-1-.89-1.55-1.46a3.73,3.73,0,0,1,3.72-1.57c.21.39.4.77.58,1.1C324.55,44.82,323.68,45.42,322,46.09Z"/>
    </g>
    <g>
      <path class="cls-2" d="M41.18,24.25a25.68,25.68,0,0,0-4.84,50.9V73.39a24,24,0,1,1,9.32.07v1.76a25.68,25.68,0,0,0-4.48-51Z"/>
      <path class="cls-2" d="M41.18,27.42a22.51,22.51,0,0,0-4.84,44.49V70.14a20.79,20.79,0,1,1,9.32.08V72a22.51,22.51,0,0,0-4.48-44.57Z"/>
      <path class="cls-2" d="M41.18,30.65A19.28,19.28,0,0,0,36.34,68.6V66.86a17.61,17.61,0,1,1,9.32.1v1.73a19.28,19.28,0,0,0-4.48-38Z"/>
      <g>
        <path class="cls-2" d="M36.59,36.92A21.76,21.76,0,0,0,33.75,39c-.63.69-.51,3-.49,3.31a.15.15,0,0,0,.15.14H48.59a.15.15,0,0,0,.15-.15V38.78a.16.16,0,0,0-.05-.11.14.14,0,0,0-.11,0l-2.61,0a.17.17,0,0,0-.15.15s-.07.81-.09,1H36.92l1-.93a.13.13,0,0,0,0-.11.19.19,0,0,0,0-.08L36.8,37A.15.15,0,0,0,36.59,36.92Zm-3.05,4.71A4.73,4.73,0,0,1,34,39.21a20.75,20.75,0,0,1,2.66-2l1,1.51c-.16.14-1.15,1.1-1.15,1.1a.15.15,0,0,0,0,.11.13.13,0,0,0,0,.06.14.14,0,0,0,.14.09h9.32A.14.14,0,0,0,46,40s.07-.82.09-1l2.33,0v3.22H33.55C33.54,42,33.54,41.83,33.54,41.63Z"/>
        <path class="cls-2" d="M47.55,43.13h-14a.14.14,0,0,0-.15.15l0,5.95a.15.15,0,0,0,.15.15h15a.15.15,0,0,0,.15-.14c0-.17.12-4.2,0-5.1A1.16,1.16,0,0,0,47.55,43.13Zm0,.3a.86.86,0,0,1,.88.75c0,.29.05.94.05,1.69,0,1.25,0,2.76-.05,3.21H33.73c0-.28,0-5.37,0-5.65Z"/>
        <path class="cls-2" d="M36.87,45.67s-.55.11-.55.47v.7a.57.57,0,0,0,.54.48c.34,0,7.94,0,8.47,0a.59.59,0,0,0,.48-.21.46.46,0,0,0,.1-.29s0-.07,0-.09v-.51a.55.55,0,0,0-.51-.55H36.87Zm8.5.3a.26.26,0,0,1,.23.25v.56a.19.19,0,0,1,0,.15.33.33,0,0,1-.26.09c-.52,0-8.35,0-8.43,0h0s-.24,0-.26-.21v-.67c0-.08.19-.15.3-.17Z"/>
        <path class="cls-2" d="M34.34,50.62a1,1,0,0,0-.85.62.43.43,0,0,1,0,0V62.75a.16.16,0,0,0,.14.16,17.35,17.35,0,0,0,1.74,0c.65-.06.71-1,.71-1.1v-3.7l1.59,1.46a2.74,2.74,0,0,1,0,.41,3.22,3.22,0,0,1,0,.5,1,1,0,0,1-.54.71.15.15,0,0,0-.08.14v1.48a.15.15,0,0,0,.14.15c.06,0,1.4.05,2,0s.94-1,1-1.08v0c0-.41,0-10,0-10.5s-.79-.75-.82-.76h-5Zm0,.3h4.95c.08,0,.54.15.58.49,0,.15,0,1.34,0,2.93,0,2.31,0,5.47,0,7.52,0,.06-.16.78-.67.82s-1.5,0-1.87,0V61.44a1.28,1.28,0,0,0,.62-.9A3.71,3.71,0,0,0,38,60a2.2,2.2,0,0,0,0-.51.15.15,0,0,0,0-.09l-1.7-1.56.62-.72.9.51a.14.14,0,0,0,.15,0A.13.13,0,0,0,38,57.5v-1a.16.16,0,0,0-.05-.11l-1.63-1.5.65-.69.7.68a.15.15,0,0,0,.16,0,.17.17,0,0,0,.09-.14V53.31s0-.05,0-.06a.79.79,0,0,0-.63-.47c-.36,0-1.28,0-1.32,0a.15.15,0,0,0-.15.15v8.89s-.06.77-.44.81a13.12,13.12,0,0,1-1.55,0V51.33A.65.65,0,0,1,34.34,50.92Zm2.88,2.16a.46.46,0,0,1,.36.26v1L37,53.85a.15.15,0,0,0-.11,0,.12.12,0,0,0-.1,0l-.75.78V53.08C36.35,53.07,37,53.06,37.22,53.08Zm-1.15,2,1.58,1.47v.7l-.78-.45a.16.16,0,0,0-.19,0l-.61.71Z"/>
        <path class="cls-2" d="M42,50.52a.92.92,0,0,0-.88.95V61.65a1.18,1.18,0,0,0,1,1.28c.9.07,5.6,0,5.8,0h0a1.09,1.09,0,0,0,.84-.84,12.52,12.52,0,0,0,0-1.88.55.55,0,0,0-.51-.55H46.83a.17.17,0,0,0-.12.06.16.16,0,0,0,0,.13,1,1,0,0,1,0,.65.19.19,0,0,1-.13.07c-.42,0-2.29,0-2.82,0V57.14h4.9a.15.15,0,0,0,.15-.15V51.55s0,0,0-.06-.34-.83-.91-1S42.54,50.5,42,50.52Zm.17,12.11c-.75-.06-.75-.94-.75-1V51.47a.62.62,0,0,1,.59-.65c2.11,0,5.38-.1,5.74,0s.6.57.69.77v5.26H43.53a.15.15,0,0,0-.15.15v3.73a.15.15,0,0,0,.15.15c.1,0,2.51.05,3,0a.47.47,0,0,0,.35-.2.87.87,0,0,0,.13-.5c0-.07,0-.14,0-.2h1.25a.32.32,0,0,1,.26.24c0,.28,0,.66,0,1a6,6,0,0,1,0,.82.75.75,0,0,1-.59.59C47.75,62.63,43,62.7,42.17,62.63Z"/>
        <path class="cls-2" d="M43.37,52.93a.15.15,0,0,0-.15.15v1.83a.16.16,0,0,0,.15.16h2.78a.6.6,0,0,0,.41-.12.71.71,0,0,0,.24-.47s0-.75,0-1.06a.56.56,0,0,0-.48-.49h-3Zm2.91.3s.21.05.22.21,0,.24,0,.39c0,.3,0,.62,0,.63s0,.33-.33.3H43.52V53.23Z"/>
      </g>
      <path class="cls-2" d="M30.49,42.76l1.38-.13s0-1,.12-.89a12.83,12.83,0,0,1,1.53,1.34l1.83,1.69a.8.8,0,0,0,.28.76,1.42,1.42,0,0,0,.71.22s.59.44.68.49a.76.76,0,0,1,.07.73c-.11.28,1.2.75,1.34.89S39.31,48.93,40,49s.43-.1,1-.53c.24-.19.42-.1.48.07a2.86,2.86,0,0,1,0,.51,1.53,1.53,0,0,0,.3.87c.29.28.19.89.19.89a4.22,4.22,0,0,1,.28.45A14,14,0,0,1,42,53.33a4,4,0,0,1-1.86,2.56s0,4.27-.31,4.8a2.5,2.5,0,0,1-2.28,1.24c-.52-.11-.32-.11-.32-.11l0,.61a.92.92,0,0,0,.67.12,8.51,8.51,0,0,1,1.26-.29c.33,0,.5.1.54.16a1.42,1.42,0,0,0,.91-.19c.19-.17.37-.14.31-1.4V60.5l.19-.08a.28.28,0,0,0,.26-.26,5.75,5.75,0,0,1,.26-2.61,4.74,4.74,0,0,1,1.21-1.41.23.23,0,0,1,.37.12,2.8,2.8,0,0,0,.69,1.43c.59.67,2.33,2.65,2.69,3.25s-.92,1.58-1,1.63l-.18.17,1.16.07a1.45,1.45,0,0,1,.41-.48,8.92,8.92,0,0,1,1.49-1c.4-.18,0-.41-.15-.53a7.22,7.22,0,0,1-1-.91,7.52,7.52,0,0,1-.77-1.76c-.28-.63-1.16-1.17-1.28-1.42a2.5,2.5,0,0,1,0-1.39,6.7,6.7,0,0,0,.17-4.16,16.66,16.66,0,0,1-.58-3.06,3.14,3.14,0,0,0-1.21-2.86,11.32,11.32,0,0,0-1.1-.93l0-.57s.42-.35.18-.73l1.49-.77a3,3,0,0,0-1.76-.43,2.55,2.55,0,0,0-1.49-1.17,2.43,2.43,0,0,0-1.1,1.47,5.69,5.69,0,0,1-1.26,1c-.64.32-.49.45-.49.45L40,43.45a2.52,2.52,0,0,0,.13.78c.12.17.34.14.42.46l.08.28-1.06.63a6,6,0,0,1-2.35-.46,4.77,4.77,0,0,0-.59-.35,1.75,1.75,0,0,0-.67-.24l-.27,0-4.51-4.22s-.26-.16-.49.24a1.23,1.23,0,0,0-.24.64A10.86,10.86,0,0,0,30.49,42.76Z"/>
      <g>
        <path class="cls-2" d="M42.82,68.87h.91l1-1.6H41.74l.23-.55H40.73a9.36,9.36,0,0,1-1,1.49L39.06,67l-1.17,0,.76,1.28h1.11l-.1.14h1.09l.21-.18h.34l-1.59,2H38.54a.06.06,0,0,0,0,.06v4.46a.06.06,0,0,0,0,.06h.57l-.69.94h1.21l.7-.94h1.49l.66.93h1.21L43,74.81h.69a.06.06,0,0,0,0-.06V70.41h.71Zm-.24-.64h.51l-.32.59-.37-.35ZM42.41,74H39.79v-.2a.3.3,0,0,1,.3-.33h2.32Zm0-1.08H39.79v-.2a.3.3,0,0,1,.3-.33h2.32Zm0-1.22H39.78c0-.57.3-.48.3-.48H42l.46-.2ZM41,70.23l.79-1,1.23,1Z"/>
        <polygon class="cls-2" points="39.92 68.51 38.75 68.51 37.3 70.29 38.44 70.29 39.92 68.51"/>
      </g>
    </g>
    <g>
      <path class="cls-1" d="M76.87,62.08c0-1.07,0-2.15-.05-3.23H76l-.88,0-.86.06a7,7,0,0,0-.74.08,1.92,1.92,0,0,0,.08-.5,2,2,0,0,0-.08-.49l2,.06,2,0,2,0,2-.06a2.05,2.05,0,0,0-.08.5,1.85,1.85,0,0,0,.08.49,7.3,7.3,0,0,0-.74-.08l-.86-.06-.89,0H78.2c0,1.08,0,2.16,0,3.23v2.68c0,.68,0,1.35,0,2s0,1.34.08,2c-.13,0-.26,0-.39-.06l-.37,0-.37,0c-.13,0-.26,0-.39.06,0-.68.06-1.35.08-2s0-1.34,0-2Z"/>
      <path class="cls-1" d="M87.61,57.84c.25.6.52,1.25.82,1.95s.59,1.4.89,2.13l.9,2.13c.29.7.57,1.36.83,2s.5,1.16.72,1.64.39.86.53,1.14l-.42-.06-.41,0-.41,0-.41.06c-.08-.27-.18-.58-.3-.92s-.26-.69-.41-1.06-.29-.74-.46-1.12-.3-.74-.44-1.08l-1,0h-2l-1,0c-.33.81-.64,1.58-.91,2.32s-.47,1.36-.6,1.86l-.3-.06-.28,0-.28,0-.3.06c.85-1.84,1.67-3.67,2.47-5.47s1.61-3.64,2.41-5.49ZM87.09,60l-1.7,3.95.85,0H88l.87,0Z"/>
      <path class="cls-1" d="M95.57,62.08c0-.68,0-1.35,0-2s0-1.34-.09-2l.39.06.38,0,.37,0L97,58c0,.68-.06,1.35-.08,2s0,1.34,0,2v2.68c0,.68,0,1.35,0,2s0,1.34.08,2c-.13,0-.26,0-.39-.06l-.37,0-.38,0-.39.06c0-.68.06-1.35.09-2s0-1.34,0-2Z"/>
      <path class="cls-1" d="M103.42,68.8c-.08-.28-.21-.71-.38-1.27s-.36-1.21-.58-1.91l-.69-2.22c-.24-.78-.47-1.51-.68-2.22s-.42-1.33-.6-1.88-.33-1-.43-1.26l.39.06.39,0,.39,0,.39-.06q.28,1.18.57,2.22c.19.7.39,1.4.6,2.11s.44,1.46.69,2.24.52,1.67.83,2.66h0c.1-.28.23-.67.39-1.16l.55-1.64c.19-.6.4-1.22.61-1.86s.42-1.26.61-1.85.36-1.12.51-1.59.25-.86.31-1.13a1.7,1.7,0,0,0,1,0c.07.28.18.67.34,1.16s.33,1,.51,1.62l.6,1.86c.22.65.42,1.27.61,1.85s.37,1.13.53,1.61l.38,1.13h0c.08-.23.19-.59.35-1.07l.52-1.63c.19-.61.39-1.25.59-1.92s.4-1.31.58-1.92.34-1.15.47-1.63.23-.83.28-1.06l.28.06.27,0,.27,0,.27-.06c-.1.24-.25.64-.45,1.19s-.42,1.18-.66,1.88-.5,1.46-.77,2.24-.53,1.53-.76,2.25l-.65,1.93c-.19.58-.34,1-.43,1.27a1.8,1.8,0,0,0-1.06,0c-.46-1.47-.92-2.94-1.39-4.41s-1-3-1.48-4.52h0l-.33,1c-.13.4-.29.84-.46,1.34s-.36,1-.56,1.61-.38,1.15-.58,1.73L105,67.22c-.2.56-.37,1.09-.53,1.58a2.61,2.61,0,0,0-.27-.06l-.27,0-.27,0Z"/>
      <path class="cls-1" d="M121.65,57.84c.25.6.53,1.25.82,1.95s.6,1.4.9,2.13l.89,2.13.84,2c.26.62.5,1.16.71,1.64l.53,1.14-.41-.06-.41,0-.41,0-.42.06c-.07-.27-.17-.58-.29-.92s-.26-.69-.41-1.06-.3-.74-.46-1.12-.31-.74-.44-1.08l-1,0h-2l-.95,0c-.34.81-.64,1.58-.91,2.32s-.47,1.36-.61,1.86l-.29-.06-.28,0-.28,0c-.1,0-.2,0-.3.06.84-1.84,1.67-3.67,2.47-5.47s1.61-3.64,2.41-5.49ZM121.14,60l-1.7,3.95.84,0H122l.87,0Z"/>
      <path class="cls-1" d="M138.39,69c-1.2-1.4-2.47-2.83-3.83-4.29s-2.7-2.91-4-4.33c0,.29,0,.68,0,1.18s0,1.15,0,2c0,.22,0,.49,0,.81s0,.66,0,1,0,.71,0,1.07,0,.7,0,1,0,.58,0,.82,0,.41,0,.52a1.68,1.68,0,0,0-.54-.08l-.28,0-.3.06c0-.13,0-.33.07-.62s.05-.62.07-1,.05-.82.07-1.27.05-.92.06-1.37,0-.91,0-1.34,0-.83,0-1.17c0-1,0-1.84,0-2.57s0-1.26,0-1.61H130l2,2.21,2.15,2.32,2,2.16q1,1,1.68,1.74V64.15c0-.72,0-1.44,0-2.14s0-1.39,0-2.06,0-1.3-.07-1.91a1.75,1.75,0,0,0,.53.08,1.62,1.62,0,0,0,.5-.08c0,.23-.05.58-.08,1s-.06,1-.08,1.47-.05,1-.07,1.52,0,.9,0,1.2,0,.89,0,1.47,0,1.16,0,1.74,0,1.1,0,1.56,0,.79,0,1Z"/>
      <path class="cls-1" d="M154.84,62.08c0-.68,0-1.35,0-2s-.05-1.34-.08-2l1.39.06,1.4,0,1.42,0,1.55-.06a2.56,2.56,0,0,0,0,.47,2.49,2.49,0,0,0,0,.47c-.28,0-.61-.06-1-.08l-1.21-.06-1.18-.05h-.94c0,.36,0,.71,0,1v2c0,.31,0,.63,0,1,.68,0,1.35,0,2,0s1.34-.06,2-.12a2.23,2.23,0,0,0,0,.23.86.86,0,0,0,0,.23.93.93,0,0,0,0,.24,2.23,2.23,0,0,0,0,.23l-.88-.07q-.49,0-1,0l-1.07,0h-1v1.32c0,.68,0,1.35,0,2l.09,2-.39-.06-.38,0-.37,0c-.13,0-.26,0-.39.06,0-.68.06-1.35.08-2s0-1.34,0-2Z"/>
      <path class="cls-1" d="M164.12,62.06c0-.67,0-1.34,0-2L164,58l1.4.06,1.39,0,1.39,0,1.38-.06a2.56,2.56,0,0,0,0,.47,2.49,2.49,0,0,0,0,.47l-.91-.07-.87-.07-1-.05h-1.3c0,.33,0,.65,0,.95s0,.64,0,1,0,.8,0,1.18,0,.68,0,.87c.91,0,1.66,0,2.23,0l1.56-.11a2.28,2.28,0,0,0,0,1c-.28,0-.59-.06-.95-.07l-1.07,0-1,0h-.75c0,.09,0,.19,0,.3s0,.25,0,.41v1.55c0,.59,0,1.08,0,1.46s0,.68,0,.87h1.1l1.16,0,1.07,0a8.18,8.18,0,0,0,.88-.12,1.5,1.5,0,0,0,0,.24c0,.09,0,.17,0,.24a2.16,2.16,0,0,0,0,.46l-1.39-.06-1.41,0-1.42,0L164,68.8q0-1,.09-2c0-.67,0-1.34,0-2Z"/>
      <path class="cls-1" d="M173.39,62.08c0-.68,0-1.35,0-2l-.09-2,.89.06.89,0a8.7,8.7,0,0,0,.89,0c.29,0,.58,0,.88,0a6.22,6.22,0,0,1,1.25.13,3,3,0,0,1,1,.41,2.13,2.13,0,0,1,.7.76,2.66,2.66,0,0,1-.08,2.45,3.22,3.22,0,0,1-.82.9,3.56,3.56,0,0,1-1,.54,5.39,5.39,0,0,1-1,.25l.52.66c.21.28.46.59.73.92l.84,1.06.84,1.06.76.94c.23.28.43.51.58.68-.15,0-.31,0-.47-.06l-.46,0-.46,0c-.15,0-.3,0-.45.06-.15-.24-.39-.58-.71-1s-.66-.92-1-1.42-.77-1-1.18-1.49-.77-.9-1.1-1.25h-.6v1.14c0,.68,0,1.35,0,2l.09,2-.39-.06-.37,0-.38,0-.39.06.09-2c0-.67,0-1.34,0-2Zm1.27.89a3.5,3.5,0,0,0,.48.06l.57,0a5,5,0,0,0,1-.11,3.11,3.11,0,0,0,1-.38,2.46,2.46,0,0,0,.73-.74,2.14,2.14,0,0,0,.28-1.16,2,2,0,0,0-.22-1,1.71,1.71,0,0,0-.59-.63,2,2,0,0,0-.78-.32,4,4,0,0,0-.82-.09l-.9,0-.61.06-.06,1.7c0,.56,0,1.12,0,1.68Z"/>
      <path class="cls-1" d="M186.27,62.08c0-1.07,0-2.15,0-3.23h-.85l-.89,0-.86.06a7.3,7.3,0,0,0-.74.08,1.92,1.92,0,0,0,.08-.5,2,2,0,0,0-.08-.49l2,.06,2,0,2,0,2-.06a2.05,2.05,0,0,0-.08.5,1.85,1.85,0,0,0,.08.49,7,7,0,0,0-.74-.08l-.85-.06-.89,0h-.85c0,1.08,0,2.16,0,3.23v2.68c0,.68,0,1.35,0,2s0,1.34.09,2l-.39-.06-.38,0-.37,0c-.13,0-.26,0-.39.06,0-.68.06-1.35.08-2s0-1.34,0-2Z"/>
      <path class="cls-1" d="M194.25,62.08c0-.68,0-1.35,0-2s-.05-1.34-.08-2c.13,0,.26,0,.39.06l.37,0,.37,0c.13,0,.26,0,.39-.06,0,.68-.06,1.35-.08,2s0,1.34,0,2v2.68c0,.68,0,1.35,0,2s.05,1.34.08,2c-.13,0-.26,0-.39-.06l-.37,0-.37,0c-.13,0-.26,0-.39.06,0-.68.06-1.35.08-2s0-1.34,0-2Z"/>
      <path class="cls-1" d="M200.06,62.08c0-.68,0-1.35,0-2s-.05-1.34-.08-2c.13,0,.26,0,.39.06l.37,0,.38,0,.39-.06c0,.68-.06,1.35-.09,2s0,1.34,0,2c0,1.31,0,2.44,0,3.4s0,1.83,0,2.58c.74,0,1.44,0,2.12,0s1.4-.08,2.18-.18a1.78,1.78,0,0,0-.08.47,1.84,1.84,0,0,0,.08.47l-1.43-.06-1.44,0-1.44,0-1.44.06c0-.68.06-1.35.08-2s0-1.34,0-2Z"/>
      <path class="cls-1" d="M209.33,62.08c0-.68,0-1.35,0-2l-.09-2,.39.06.37,0,.38,0,.39-.06-.09,2c0,.67,0,1.34,0,2v2.68c0,.68,0,1.35,0,2l.09,2-.39-.06-.38,0-.37,0-.39.06.09-2c0-.67,0-1.34,0-2Z"/>
      <path class="cls-1" d="M214,68.53l1.29-1.8c.46-.64.92-1.28,1.37-1.94L218,62.87c.43-.63.82-1.21,1.19-1.74l1-1.4.61-.92-.57,0h-1.77q-.69,0-1.38.06l-1.33.07-1.06.09a1.51,1.51,0,0,0,0-1c.51.05,1.31.07,2.42.07h4.07l.85,0c.28,0,.55,0,.82-.06v.28c-.15.17-.36.42-.61.74l-.84,1.13-1,1.39q-.54.75-1.08,1.53l-1.05,1.53q-.51.77-1,1.41l-.77,1.17-.5.8.68,0h.62c.39,0,.85,0,1.38,0l1.56-.06,1.47-.1c.47,0,.83-.07,1.1-.1,0,.1,0,.18-.05.27a1,1,0,0,0,0,.25,2.05,2.05,0,0,0,.08.5l-1,0-.92,0h-4.6l-1.35,0-.9,0Z"/>
      <path class="cls-1" d="M226.15,62.06c0-.67,0-1.34,0-2L226,58l1.4.06,1.39,0,1.39,0,1.39-.06a2.59,2.59,0,0,0-.05.47,2.5,2.5,0,0,0,.05.47l-.92-.07-.87-.07-1-.05h-1.31c0,.33,0,.65,0,.95s0,.64,0,1v1.18c0,.38,0,.68,0,.87.92,0,1.66,0,2.24,0l1.55-.11a2.44,2.44,0,0,0,0,.48,2.5,2.5,0,0,0,0,.47c-.27,0-.59-.06-.94-.07l-1.08,0-1,0h-.76c0,.09,0,.19,0,.3v3.42q0,.59,0,.87h1.1l1.15,0,1.07,0a7.84,7.84,0,0,0,.88-.12.88.88,0,0,0,0,.24,2.09,2.09,0,0,0,0,.24,2.19,2.19,0,0,0,0,.46c-.46,0-.93,0-1.39-.06l-1.41,0-1.42,0L226,68.8q0-1,.09-2c0-.67,0-1.34,0-2Z"/>
      <path class="cls-1" d="M235.42,62.08c0-.68,0-1.35,0-2s0-1.34-.09-2l.89.06.89,0a8.7,8.7,0,0,0,.89,0c.29,0,.59,0,.89,0a6.2,6.2,0,0,1,1.24.13,3,3,0,0,1,1,.41,2,2,0,0,1,.7.76,2.41,2.41,0,0,1,.26,1.17,2.33,2.33,0,0,1-.34,1.28,3.19,3.19,0,0,1-.81.9,3.61,3.61,0,0,1-1.05.54,5,5,0,0,1-1,.25l.52.66c.22.28.46.59.73.92l.84,1.06.84,1.06.76.94c.23.28.43.51.58.68-.15,0-.31,0-.46-.06l-.47,0-.45,0c-.16,0-.31,0-.45.06-.16-.24-.4-.58-.71-1s-.67-.92-1.05-1.42-.77-1-1.17-1.49-.78-.9-1.11-1.25h-.59v1.14c0,.68,0,1.35,0,2s0,1.34.08,2c-.13,0-.26,0-.39-.06l-.37,0-.38,0-.39.06c0-.68.06-1.35.09-2s0-1.34,0-2Zm1.28.89a3.16,3.16,0,0,0,.47.06l.57,0a5.19,5.19,0,0,0,1-.11,3.15,3.15,0,0,0,.95-.38,2.25,2.25,0,0,0,.73-.74,2.14,2.14,0,0,0,.29-1.16,2,2,0,0,0-.23-1,1.68,1.68,0,0,0-.58-.63,2,2,0,0,0-.79-.32,4,4,0,0,0-.82-.09l-.9,0-.61.06-.06,1.7q0,.84,0,1.68Z"/>
      <path class="cls-1" d="M266.1,68.11a2,2,0,0,1-.45.27,5.84,5.84,0,0,1-.73.29,7,7,0,0,1-.95.23,5.8,5.8,0,0,1-1.11.1,6.73,6.73,0,0,1-2.28-.38,4.88,4.88,0,0,1-1.79-1.09,4.94,4.94,0,0,1-1.19-1.75,6.69,6.69,0,0,1,0-4.72,5,5,0,0,1,1.2-1.75,5,5,0,0,1,1.85-1.09,7.1,7.1,0,0,1,2.37-.38,7.87,7.87,0,0,1,1.87.21,8.07,8.07,0,0,1,1.51.51,2,2,0,0,0-.21.59l-.12.62-.09,0c-.12-.13-.27-.27-.45-.43a5.91,5.91,0,0,0-.64-.45,4.1,4.1,0,0,0-.85-.36,3.4,3.4,0,0,0-1-.15,5,5,0,0,0-1.71.29,3.64,3.64,0,0,0-1.37.92,4.16,4.16,0,0,0-.91,1.55,7.77,7.77,0,0,0,0,4.48,4.16,4.16,0,0,0,.91,1.55,3.64,3.64,0,0,0,1.37.92,5,5,0,0,0,1.71.29,3.38,3.38,0,0,0,1-.14,5.33,5.33,0,0,0,1.59-.75l.54-.4.06.06Z"/>
      <path class="cls-1" d="M269.05,63.42a6.25,6.25,0,0,1,.42-2.36,5,5,0,0,1,1.2-1.75,5.08,5.08,0,0,1,1.84-1.09,7.55,7.55,0,0,1,4.73,0,5,5,0,0,1,1.85,1.09,5,5,0,0,1,1.2,1.75,6.69,6.69,0,0,1,0,4.72,5,5,0,0,1-1.2,1.75,5,5,0,0,1-1.85,1.09,7.55,7.55,0,0,1-4.73,0,5.08,5.08,0,0,1-1.84-1.09,5,5,0,0,1-1.2-1.75A6.25,6.25,0,0,1,269.05,63.42Zm10.14,0a6.82,6.82,0,0,0-.33-2.24,4.3,4.3,0,0,0-.91-1.55,3.72,3.72,0,0,0-1.37-.92,5,5,0,0,0-1.71-.29,4.83,4.83,0,0,0-1.69.29,3.72,3.72,0,0,0-1.37.92,4.3,4.3,0,0,0-.91,1.55,7.77,7.77,0,0,0,0,4.48,4.3,4.3,0,0,0,.91,1.55,3.72,3.72,0,0,0,1.37.92,4.83,4.83,0,0,0,1.69.29,5,5,0,0,0,1.71-.29,3.72,3.72,0,0,0,1.37-.92,4.3,4.3,0,0,0,.91-1.55A6.82,6.82,0,0,0,279.19,63.42Z"/>
      <path class="cls-1" d="M283.76,68a.85.85,0,0,1,.26-.63.87.87,0,0,1,.62-.26.89.89,0,0,1,.89.89.87.87,0,0,1-.26.62.85.85,0,0,1-.63.26.89.89,0,0,1-.88-.88Z"/>
      <path class="cls-1" d="M290,67.55a1.06,1.06,0,0,1,.22-.4.54.54,0,0,1,.46-.19.71.71,0,0,1,.38.12.46.46,0,0,1,.2.41.77.77,0,0,1-.08.34l-.15.31L289,71.45l-.28-.11Z"/>
      <path class="cls-1" d="M301.44,62.08c0-.68,0-1.35,0-2s0-1.34-.08-2l.39.06.37,0,.37,0,.39-.06c0,.68-.06,1.35-.08,2s0,1.34,0,2c0,1.31,0,2.44,0,3.4s0,1.83,0,2.58c.73,0,1.44,0,2.11,0s1.41-.08,2.19-.18a1.45,1.45,0,0,0-.08.47,1.49,1.49,0,0,0,.08.47c-.48,0-1,0-1.44-.06l-1.43,0-1.44,0c-.47,0-1,0-1.44.06,0-.68.06-1.35.08-2s0-1.34,0-2Z"/>
      <path class="cls-1" d="M311.45,62.08c0-1.07,0-2.15-.05-3.23h-.85l-.89,0-.86.06a7.3,7.3,0,0,0-.74.08,1.57,1.57,0,0,0,.08-.5,1.6,1.6,0,0,0-.08-.49l2,.06,2,0,2,0,2-.06a2,2,0,0,0-.07.5,1.81,1.81,0,0,0,.07.49,6.71,6.71,0,0,0-.74-.08l-.85-.06-.89,0h-.85c0,1.08,0,2.16,0,3.23v2.68c0,.68,0,1.35,0,2l.09,2-.39-.06-.38,0-.37,0-.39.06.09-2c0-.67,0-1.34,0-2Z"/>
      <path class="cls-1" d="M319.42,62.08c0-.68,0-1.35,0-2s-.05-1.34-.08-2l1.17.06,1.18,0c.4,0,.79,0,1.18,0s.78,0,1.17,0a6.79,6.79,0,0,1,2.35.36,4.16,4.16,0,0,1,1.6,1,4,4,0,0,1,.91,1.62,7.58,7.58,0,0,1,.29,2.16,5.79,5.79,0,0,1-.54,2.63,5.18,5.18,0,0,1-1.37,1.73,5.29,5.29,0,0,1-1.84,1,7.06,7.06,0,0,1-1.93.29c-.35,0-.7,0-1,0s-.69,0-1,0l-1.05,0-1,.06c0-.68.06-1.35.08-2s0-1.34,0-2Zm1.28,2.68q0,1.69.09,3.3a5.33,5.33,0,0,0,.89.12c.38,0,.76,0,1.16,0a7.68,7.68,0,0,0,1.71-.2,3.69,3.69,0,0,0,1.53-.77,4,4,0,0,0,1.11-1.53,7.54,7.54,0,0,0,.09-4.75,3.38,3.38,0,0,0-.92-1.38,3.25,3.25,0,0,0-1.4-.7,7.57,7.57,0,0,0-1.77-.19c-.46,0-.9,0-1.3,0l-1.1.1c0,.5-.05,1-.07,1.57s0,1.1,0,1.66Z"/>
      <path class="cls-1" d="M332.08,68a.85.85,0,0,1,.26-.63.87.87,0,0,1,.62-.26.89.89,0,0,1,.89.89.87.87,0,0,1-.26.62.85.85,0,0,1-.63.26.89.89,0,0,1-.88-.88Z"/>
    </g>
  </g>
</svg>
